<svg width="51" height="50" viewBox="0 0 51 50" fill="none" xmlns="http://www.w3.org/2000/svg">
<path d="M50.0983 29.2747V20.983H43.9932C43.479 18.7507 42.6436 16.7096 41.4226 14.8599L45.7926 10.5227L39.8802 4.65476L35.5102 8.99196C33.6466 7.84388 31.5901 6.95093 29.3408 6.44067V0.381348H20.9864V6.44067C18.7372 6.95093 16.6807 7.78009 14.817 8.99196L10.447 4.71854L4.53472 10.5865L8.90471 14.9237C7.74795 16.7734 6.84823 18.8144 6.33412 21.0468H0.229004V29.3385H6.33412C6.84823 31.5709 7.68368 33.6119 8.90471 35.4616L4.53472 39.7988L10.447 45.6668L14.817 41.3296C16.6807 42.4777 18.7372 43.3706 20.9864 43.8809V49.9402H29.3408V43.8809C31.5901 43.3706 33.6466 42.5415 35.5102 41.3296L39.8802 45.6668L45.7926 39.7988L41.4226 35.4616C42.5793 33.6119 43.479 31.5709 43.9932 29.3385H50.0983V29.2747Z" fill="white"/>
<path d="M34.4821 25.1288C34.4821 30.2314 30.3049 34.3773 25.1637 34.3773C20.0226 34.3773 15.8453 30.2314 15.8453 25.1288C15.8453 20.0262 20.0226 15.8804 25.1637 15.8804C30.3049 15.8804 34.4821 20.0262 34.4821 25.1288Z" fill="#2CB249"/>
</svg>
