<svg width="78" height="59" viewBox="0 0 78 59" fill="none" xmlns="http://www.w3.org/2000/svg">
<path d="M78.0055 19.7119V49.4983H68.0445L68.1088 52.5598V54.2182V58.1727L65.6024 56.6419L64.5742 56.0041L62.325 54.6009L61.8108 54.3457L59.1117 52.6874L58.9189 52.5598L56.3484 50.9653L55.4487 50.455L53.9705 49.4983H24.3446V19.7119H78.0055Z" fill="white"/>
<path d="M0.502441 0.513428V30.2998H10.3992V38.9742L24.5374 30.2998H54.1634V0.513428H0.502441Z" fill="#89F8AF"/>
<path d="M19.0749 14.8645C19.0749 16.3952 17.8538 17.6071 16.3115 17.6071C14.7691 17.6071 13.5481 16.3952 13.5481 14.8645C13.5481 13.3337 14.7691 12.1218 16.3115 12.1218C17.7896 12.1218 19.0749 13.3337 19.0749 14.8645Z" fill="#2CB249"/>
<path d="M30.1284 14.8645C30.1284 16.3952 28.9074 17.6071 27.3651 17.6071C25.8227 17.6071 24.6017 16.3952 24.6017 14.8645C24.6017 13.3337 25.8227 12.1218 27.3651 12.1218C28.8431 12.1218 30.1284 13.3337 30.1284 14.8645Z" fill="#2CB249"/>
<path d="M40.9892 14.8645C40.9892 16.3952 39.7681 17.6071 38.2258 17.6071C36.6834 17.6071 35.4624 16.3952 35.4624 14.8645C35.4624 13.3337 36.6834 12.1218 38.2258 12.1218C39.7681 12.1218 40.9892 13.3337 40.9892 14.8645Z" fill="#2CB249"/>
</svg>
