<svg width="49" height="62" viewBox="0 0 49 62" fill="none" xmlns="http://www.w3.org/2000/svg">
<path d="M40.6718 61.2385L48.0622 53.9036V0.83667H0.37793V61.2385H40.6718Z" fill="white"/>
<path d="M40.2861 60.7922V53.521H47.6123L40.2861 60.7922Z" fill="#BCBEC0"/>
<path d="M30.9036 11.2332H17.408V16.3995H30.9036V11.2332Z" fill="#2CB249"/>
<path d="M31.8032 17.165H16.5725V10.4041H31.7389V17.165H31.8032ZM18.2434 15.5704H30.0681V12.0624H18.2434V15.5704Z" fill="#2CB249"/>
<path d="M20.4285 27.2424H11.4957V31.5158H20.4285V27.2424Z" fill="#2CB249"/>
<path d="M21.3281 32.3451H10.7245V26.4133H21.3281V32.3451ZM12.3311 30.6867H19.6573V28.0079H12.3311V30.6867Z" fill="#2CB249"/>
<path d="M14.7088 41.2747H8.41089V45.5481H14.7088V41.2747Z" fill="#2CB249"/>
<path d="M15.5442 46.3773H7.57544V40.4456H15.5442V46.3773ZM9.24633 44.719H13.8734V42.0401H9.24633V44.719Z" fill="#2CB249"/>
<path d="M27.3046 41.2747H21.0067V45.5481H27.3046V41.2747Z" fill="#2CB249"/>
<path d="M28.0758 46.3773H20.1071V40.4456H28.0758V46.3773ZM21.8422 44.719H26.4692V42.0401H21.8422V44.719Z" fill="#2CB249"/>
<path d="M39.8364 41.2747H33.5385V45.5481H39.8364V41.2747Z" fill="#2CB249"/>
<path d="M40.6718 46.3773H32.703V40.4456H40.6718V46.3773ZM34.3738 44.719H39.0009V42.0401H34.3738V44.719Z" fill="#2CB249"/>
<path d="M36.8159 27.2424H27.9474V31.5158H36.8159V27.2424Z" fill="#2CB249"/>
<path d="M37.6513 32.3451H27.1119V26.4133H37.6513V32.3451ZM28.7186 30.6867H35.9162V28.0079H28.7186V30.6867Z" fill="#2CB249"/>
<path d="M33.1528 27.4977H31.5462V23.2243H16.8296V27.4977H15.1587V21.5659H33.1528V27.4977Z" fill="#2CB249"/>
<path d="M25.0554 17.0374H23.3845V22.5864H25.0554V17.0374Z" fill="#2CB249"/>
<path d="M16.8296 30.6868H15.1587V37.7028H16.8296V30.6868Z" fill="#2CB249"/>
<path d="M37.5228 41.5298H35.8519V38.1493H12.3953V41.5298H10.7887V36.491H37.5228V41.5298Z" fill="#2CB249"/>
<path d="M24.9912 36.491H23.3203V41.5936H24.9912V36.491Z" fill="#2CB249"/>
</svg>
