<svg width="57" height="54" viewBox="0 0 57 54" fill="none" xmlns="http://www.w3.org/2000/svg">
<path d="M33.3031 53.1404H5.60496C2.90585 53.1404 0.720886 50.9718 0.720886 48.293V20.8028C0.720886 18.1239 2.90585 15.9553 5.60496 15.9553H33.3031C36.0022 15.9553 38.1871 18.1239 38.1871 20.8028V48.293C38.1871 50.9718 36.0022 53.1404 33.3031 53.1404Z" fill="#A7A9AC"/>
<path d="M19.4861 44.0195C18.5864 44.0195 17.7509 43.6368 17.1725 42.999L1.17073 26.1605C-0.0502976 24.8848 0.0138963 22.8438 1.29919 21.6319C2.58448 20.4201 4.64099 20.4839 5.86201 21.7595L19.4861 36.1105L51.3613 1.66806C52.5824 0.392411 54.5745 0.264849 55.9241 1.47671C57.2094 2.68858 57.3379 4.66583 56.1168 6.00526L21.8638 42.999C21.2212 43.6368 20.3858 44.0195 19.4861 44.0195Z" fill="white"/>
</svg>
