<svg width="38" height="61" viewBox="0 0 38 61" fill="none" xmlns="http://www.w3.org/2000/svg">
<path d="M0.82019 53.4779V7.61835C0.82019 3.85519 3.90489 0.857422 7.63223 0.857422H30.7032C34.4948 0.857422 37.5152 3.91898 37.5152 7.61835V53.4779C37.5152 57.241 34.4305 60.2388 30.7032 60.2388H7.63223C3.84062 60.2388 0.82019 57.241 0.82019 53.4779Z" fill="#89F8AF"/>
<path d="M37.5128 49.1693L37.5128 7.64697L0.81776 7.64697L0.81776 49.1693L37.5128 49.1693Z" fill="white"/>
<path d="M22.606 55.8378H15.6655C14.83 55.8378 14.1874 55.2 14.1874 54.3708C14.1874 53.5416 14.83 52.9038 15.6655 52.9038H22.606C23.4415 52.9038 24.0841 53.5416 24.0841 54.3708C24.0841 55.2 23.4415 55.8378 22.606 55.8378Z" fill="#2CB249"/>
<path d="M16.4371 36.8943C16.0515 36.8943 15.6659 36.7667 15.4088 36.5116L9.6893 31.0901C9.11092 30.5161 9.04665 29.6231 9.62503 29.0491C10.2034 28.475 11.1031 28.4113 11.6815 28.9853L16.18 33.1949L28.1975 16.484C28.6473 15.8461 29.6113 15.6548 30.254 16.165C30.8966 16.6115 31.0894 17.5683 30.5753 18.2061L17.5938 36.3203C17.3368 36.6392 16.9512 36.8943 16.5656 36.9581C16.5656 36.8943 16.5013 36.8943 16.4371 36.8943Z" fill="#2CB249"/>
</svg>
