<svg xmlns="http://www.w3.org/2000/svg" xmlns:xlink="http://www.w3.org/1999/xlink" width="500" zoomAndPan="magnify" viewBox="0 0 375 374.999991" height="500" preserveAspectRatio="xMidYMid meet" version="1.0"><defs><clipPath id="2d9c487ff3"><path d="M 87 5.15625 L 286 5.15625 L 286 157 L 87 157 Z M 87 5.15625 " clip-rule="nonzero"/></clipPath><clipPath id="45bb532fcb"><path d="M 200 166.421875 L 375 166.421875 L 375 369.375 L 200 369.375 Z M 200 166.421875 " clip-rule="nonzero"/></clipPath><clipPath id="8eecbbd029"><path d="M 127.277344 139.671875 L 248 139.671875 L 248 260.421875 L 127.277344 260.421875 Z M 127.277344 139.671875 " clip-rule="nonzero"/></clipPath></defs><path fill="#ecfad2" d="M 163.9375 297.6875 L 63.308594 297.6875 C 55.566406 297.6875 51.734375 292.492188 50.445312 290.257812 C 49.152344 288.027344 46.574219 282.105469 50.445312 275.402344 L 62.082031 255.242188 L 89.609375 271.132812 L 89.597656 167.671875 L 0 219.398438 L 27.523438 235.289062 L 15.882812 255.453125 C 5.988281 272.597656 5.988281 293.066406 15.882812 310.210938 C 25.78125 327.359375 43.511719 337.59375 63.308594 337.59375 L 163.9375 337.59375 C 174.957031 337.59375 183.890625 328.660156 183.890625 317.640625 C 183.890625 306.621094 174.957031 297.6875 163.9375 297.6875 " fill-opacity="1" fill-rule="nonzero"/><g clip-path="url(#2d9c487ff3)"><path fill="#ecfad2" d="M 285.191406 152.59375 L 285.199219 49.136719 L 257.675781 65.027344 L 239.171875 32.984375 C 229.273438 15.839844 211.546875 5.601562 191.75 5.601562 C 171.949219 5.601562 154.222656 15.839844 144.324219 32.984375 L 90.007812 127.066406 C 84.5 136.605469 87.769531 148.8125 97.308594 154.320312 C 100.449219 156.136719 103.882812 156.996094 107.265625 156.996094 C 114.160156 156.996094 120.871094 153.417969 124.566406 147.019531 L 178.882812 52.9375 C 182.753906 46.230469 189.171875 45.507812 191.75 45.507812 C 194.328125 45.507812 200.746094 46.230469 204.617188 52.9375 L 223.117188 84.980469 L 195.59375 100.871094 L 285.191406 152.59375 " fill-opacity="1" fill-rule="nonzero"/></g><g clip-path="url(#45bb532fcb)"><path fill="#ecfad2" d="M 367.613281 255.453125 L 322.195312 176.78125 C 316.6875 167.238281 304.484375 163.96875 294.941406 169.480469 C 285.398438 174.988281 282.125 187.191406 287.636719 196.734375 L 333.058594 275.402344 C 336.925781 282.105469 334.347656 288.027344 333.058594 290.257812 C 331.765625 292.492188 327.933594 297.6875 320.191406 297.6875 L 290.046875 297.6875 L 290.046875 265.90625 L 200.457031 317.640625 L 290.046875 369.375 L 290.046875 337.59375 L 320.191406 337.59375 C 339.988281 337.59375 357.71875 327.355469 367.617188 310.210938 C 377.515625 293.066406 377.515625 272.597656 367.613281 255.453125 " fill-opacity="1" fill-rule="nonzero"/></g><g clip-path="url(#8eecbbd029)"><path fill="#ecfad2" d="M 187.5 150.621094 C 160.285156 150.621094 138.226562 172.679688 138.226562 199.894531 C 138.226562 227.105469 160.285156 249.167969 187.5 249.167969 C 214.710938 249.167969 236.773438 227.105469 236.773438 199.894531 C 236.773438 172.679688 214.710938 150.621094 187.5 150.621094 Z M 127.277344 199.894531 C 127.277344 166.632812 154.238281 139.671875 187.5 139.671875 C 220.757812 139.671875 247.722656 166.632812 247.722656 199.894531 C 247.722656 233.152344 220.757812 260.117188 187.5 260.117188 C 154.238281 260.117188 127.277344 233.152344 127.277344 199.894531 Z M 127.277344 199.894531 " fill-opacity="1" fill-rule="evenodd"/></g><path fill="#ecfad2" d="M 167.792969 186.207031 C 167.792969 177.136719 175.144531 169.78125 184.214844 169.78125 L 201.1875 169.78125 L 201.1875 180.730469 L 184.214844 180.730469 C 181.191406 180.730469 178.742188 183.183594 178.742188 186.207031 L 178.742188 188.945312 C 178.742188 191.96875 181.191406 194.417969 184.214844 194.417969 L 190.785156 194.417969 C 199.855469 194.417969 207.210938 201.773438 207.210938 210.84375 L 207.210938 213.582031 C 207.210938 222.652344 199.855469 230.003906 190.785156 230.003906 L 173.8125 230.003906 L 173.8125 219.054688 L 190.785156 219.054688 C 193.808594 219.054688 196.261719 216.605469 196.261719 213.582031 L 196.261719 210.84375 C 196.261719 207.820312 193.808594 205.367188 190.785156 205.367188 L 184.214844 205.367188 C 175.144531 205.367188 167.792969 198.015625 167.792969 188.945312 Z M 167.792969 186.207031 " fill-opacity="1" fill-rule="evenodd"/><path fill="#ecfad2" d="M 182.023438 163.214844 L 192.972656 163.214844 L 192.972656 175.257812 L 182.023438 175.257812 Z M 182.023438 163.214844 " fill-opacity="1" fill-rule="evenodd"/><path fill="#ecfad2" d="M 182.023438 224.53125 L 192.972656 224.53125 L 192.972656 236.574219 L 182.023438 236.574219 Z M 182.023438 224.53125 " fill-opacity="1" fill-rule="evenodd"/></svg>