<svg xmlns="http://www.w3.org/2000/svg" xmlns:xlink="http://www.w3.org/1999/xlink" width="500" zoomAndPan="magnify" viewBox="0 0 375 374.999991" height="500" preserveAspectRatio="xMidYMid meet" version="1.0"><defs><g/><clipPath id="7f585b4883"><path d="M 45.96875 181 L 99 181 L 99 231 L 45.96875 231 Z M 45.96875 181 " clip-rule="nonzero"/></clipPath><clipPath id="7313e1b5c5"><path d="M 70 135.84375 L 127 135.84375 L 127 179 L 70 179 Z M 70 135.84375 " clip-rule="nonzero"/></clipPath><clipPath id="f533a33524"><path d="M 102.605469 181.523438 L 152.210938 181.523438 L 152.210938 239.015625 L 102.605469 239.015625 Z M 102.605469 181.523438 " clip-rule="nonzero"/></clipPath><clipPath id="46d33b9117"><path d="M 82.023438 173.949219 L 115.773438 173.949219 L 115.773438 207.699219 L 82.023438 207.699219 Z M 82.023438 173.949219 " clip-rule="nonzero"/></clipPath></defs><g clip-path="url(#7f585b4883)"><path fill="#2e4938" d="M 92.410156 218.710938 L 63.902344 218.710938 C 61.710938 218.710938 60.625 217.238281 60.257812 216.605469 C 59.894531 215.972656 59.160156 214.296875 60.257812 212.394531 L 63.554688 206.683594 L 71.351562 211.1875 L 71.351562 181.878906 L 45.96875 196.53125 L 53.765625 201.03125 L 50.46875 206.746094 C 47.664062 211.601562 47.664062 217.402344 50.46875 222.257812 C 53.273438 227.113281 58.292969 230.015625 63.902344 230.015625 L 92.410156 230.015625 C 95.53125 230.015625 98.0625 227.484375 98.0625 224.363281 C 98.0625 221.242188 95.53125 218.710938 92.410156 218.710938 " fill-opacity="1" fill-rule="nonzero"/></g><g clip-path="url(#7313e1b5c5)"><path fill="#2e4938" d="M 126.757812 177.605469 L 126.761719 148.300781 L 118.964844 152.800781 L 113.722656 143.722656 C 110.917969 138.867188 105.894531 135.96875 100.289062 135.96875 C 94.679688 135.96875 89.65625 138.867188 86.851562 143.722656 L 71.464844 170.375 C 69.90625 173.078125 70.832031 176.535156 73.535156 178.097656 C 74.425781 178.609375 75.398438 178.855469 76.355469 178.855469 C 78.308594 178.855469 80.210938 177.839844 81.257812 176.027344 L 96.640625 149.375 C 97.738281 147.476562 99.558594 147.269531 100.289062 147.269531 C 101.019531 147.269531 102.835938 147.476562 103.933594 149.375 L 109.175781 158.453125 L 101.375 162.953125 L 126.757812 177.605469 " fill-opacity="1" fill-rule="nonzero"/></g><g clip-path="url(#f533a33524)"><path fill="#2e4938" d="M 150.105469 206.746094 L 137.242188 184.457031 C 135.679688 181.753906 132.222656 180.828125 129.519531 182.390625 C 126.816406 183.949219 125.890625 187.40625 127.449219 190.109375 L 140.316406 212.394531 C 141.414062 214.296875 140.683594 215.972656 140.316406 216.605469 C 139.953125 217.238281 138.867188 218.710938 136.671875 218.710938 L 128.132812 218.710938 L 128.132812 209.707031 L 102.753906 224.363281 L 128.132812 239.015625 L 128.132812 230.015625 L 136.671875 230.015625 C 142.28125 230.015625 147.304688 227.113281 150.109375 222.257812 C 152.910156 217.402344 152.910156 211.601562 150.105469 206.746094 " fill-opacity="1" fill-rule="nonzero"/></g><g clip-path="url(#46d33b9117)"><path fill="#2e4938" d="M 99.082031 177.050781 C 91.375 177.050781 85.125 183.300781 85.125 191.007812 C 85.125 198.714844 91.375 204.964844 99.082031 204.964844 C 106.789062 204.964844 113.035156 198.714844 113.035156 191.007812 C 113.035156 183.300781 106.789062 177.050781 99.082031 177.050781 Z M 82.023438 191.007812 C 82.023438 181.585938 89.660156 173.949219 99.082031 173.949219 C 108.5 173.949219 116.136719 181.585938 116.136719 191.007812 C 116.136719 200.425781 108.5 208.0625 99.082031 208.0625 C 89.660156 208.0625 82.023438 200.425781 82.023438 191.007812 Z M 82.023438 191.007812 " fill-opacity="1" fill-rule="evenodd"/></g><path fill="#2e4938" d="M 93.5 187.132812 C 93.5 184.5625 95.582031 182.480469 98.152344 182.480469 L 102.957031 182.480469 L 102.957031 185.582031 L 98.152344 185.582031 C 97.292969 185.582031 96.601562 186.273438 96.601562 187.132812 L 96.601562 187.90625 C 96.601562 188.761719 97.292969 189.457031 98.152344 189.457031 L 100.011719 189.457031 C 102.582031 189.457031 104.664062 191.539062 104.664062 194.109375 L 104.664062 194.882812 C 104.664062 197.453125 102.582031 199.535156 100.011719 199.535156 L 95.203125 199.535156 L 95.203125 196.433594 L 100.011719 196.433594 C 100.867188 196.433594 101.5625 195.742188 101.5625 194.882812 L 101.5625 194.109375 C 101.5625 193.253906 100.867188 192.558594 100.011719 192.558594 L 98.152344 192.558594 C 95.582031 192.558594 93.5 190.476562 93.5 187.90625 Z M 93.5 187.132812 " fill-opacity="1" fill-rule="evenodd"/><path fill="#2e4938" d="M 97.53125 180.617188 L 100.632812 180.617188 L 100.632812 184.03125 L 97.53125 184.03125 Z M 97.53125 180.617188 " fill-opacity="1" fill-rule="evenodd"/><path fill="#2e4938" d="M 97.53125 197.984375 L 100.632812 197.984375 L 100.632812 201.398438 L 97.53125 201.398438 Z M 97.53125 197.984375 " fill-opacity="1" fill-rule="evenodd"/><g fill="#2e4938" fill-opacity="1"><g transform="translate(171.667932, 183.8001)"><g><path d="M 18.15625 -23.015625 C 18.550781 -23.015625 18.816406 -22.925781 18.953125 -22.75 C 19.085938 -22.570312 19.15625 -22.320312 19.15625 -22 L 19.15625 -19.09375 C 19.15625 -18.789062 19.085938 -18.546875 18.953125 -18.359375 C 18.816406 -18.171875 18.550781 -18.078125 18.15625 -18.078125 L 12.796875 -18.078125 L 12.796875 -1.015625 C 12.796875 -0.617188 12.707031 -0.347656 12.53125 -0.203125 C 12.363281 -0.0664062 12.113281 0 11.78125 0 L 8.328125 0 C 8.023438 0 7.78125 -0.0664062 7.59375 -0.203125 C 7.40625 -0.347656 7.3125 -0.617188 7.3125 -1.015625 L 7.3125 -18.078125 L 1.921875 -18.078125 C 1.523438 -18.078125 1.253906 -18.171875 1.109375 -18.359375 C 0.972656 -18.546875 0.90625 -18.789062 0.90625 -19.09375 L 0.90625 -22 C 0.90625 -22.320312 0.972656 -22.570312 1.109375 -22.75 C 1.253906 -22.925781 1.523438 -23.015625 1.921875 -23.015625 Z M 18.15625 -23.015625 "/></g></g></g><g fill="#2e4938" fill-opacity="1"><g transform="translate(191.735605, 183.8001)"><g><path d="M 21.4375 -1.125 C 21.601562 -0.882812 21.640625 -0.632812 21.546875 -0.375 C 21.453125 -0.125 21.238281 0 20.90625 0 L 16.78125 0 C 16.363281 0 16.03125 -0.078125 15.78125 -0.234375 C 15.539062 -0.398438 15.289062 -0.671875 15.03125 -1.046875 L 11.265625 -6.671875 C 11.097656 -6.890625 10.988281 -7.117188 10.9375 -7.359375 C 10.894531 -7.609375 10.875 -7.976562 10.875 -8.46875 L 10.875 -11.265625 C 10.875 -11.585938 10.941406 -11.835938 11.078125 -12.015625 C 11.222656 -12.191406 11.492188 -12.28125 11.890625 -12.28125 L 12.59375 -12.28125 C 13.445312 -12.28125 14.210938 -12.546875 14.890625 -13.078125 C 15.566406 -13.609375 15.90625 -14.285156 15.90625 -15.109375 C 15.90625 -16.015625 15.597656 -16.734375 14.984375 -17.265625 C 14.367188 -17.804688 13.601562 -18.078125 12.6875 -18.078125 L 8.046875 -18.078125 L 8.046875 -1.015625 C 8.046875 -0.617188 7.957031 -0.347656 7.78125 -0.203125 C 7.601562 -0.0664062 7.351562 0 7.03125 0 L 3.5625 0 C 3.257812 0 3.019531 -0.0664062 2.84375 -0.203125 C 2.675781 -0.347656 2.59375 -0.617188 2.59375 -1.015625 L 2.59375 -21.953125 C 2.59375 -22.285156 2.65625 -22.535156 2.78125 -22.703125 C 2.90625 -22.878906 3.164062 -22.96875 3.5625 -22.96875 L 12.375 -22.96875 C 13.65625 -22.96875 14.710938 -22.882812 15.546875 -22.71875 C 16.390625 -22.5625 17.109375 -22.3125 17.703125 -21.96875 C 18.304688 -21.632812 18.851562 -21.222656 19.34375 -20.734375 C 19.988281 -20.109375 20.484375 -19.316406 20.828125 -18.359375 C 21.179688 -17.398438 21.359375 -16.363281 21.359375 -15.25 C 21.359375 -14.03125 21.101562 -12.941406 20.59375 -11.984375 C 20.082031 -11.035156 19.453125 -10.242188 18.703125 -9.609375 C 17.960938 -8.984375 17.226562 -8.539062 16.5 -8.28125 Z M 21.4375 -1.125 "/></g></g></g><g fill="#2e4938" fill-opacity="1"><g transform="translate(215.019702, 183.8001)"><g><path d="M 22.375 -0.984375 C 22.46875 -0.773438 22.488281 -0.554688 22.4375 -0.328125 C 22.394531 -0.109375 22.175781 0 21.78125 0 L 18.109375 0 C 17.734375 0 17.453125 -0.0664062 17.265625 -0.203125 C 17.085938 -0.347656 16.925781 -0.628906 16.78125 -1.046875 L 15.8125 -3.8125 L 7.234375 -3.8125 L 6.265625 -1.046875 C 6.117188 -0.628906 5.957031 -0.347656 5.78125 -0.203125 C 5.613281 -0.0664062 5.332031 0 4.9375 0 L 1.265625 0 C 0.890625 0 0.671875 -0.109375 0.609375 -0.328125 C 0.554688 -0.554688 0.578125 -0.773438 0.671875 -0.984375 L 8.421875 -21.921875 C 8.566406 -22.296875 8.75 -22.570312 8.96875 -22.75 C 9.1875 -22.925781 9.484375 -23.015625 9.859375 -23.015625 L 13.21875 -23.015625 C 13.613281 -23.015625 13.910156 -22.925781 14.109375 -22.75 C 14.304688 -22.570312 14.488281 -22.296875 14.65625 -21.921875 Z M 11.546875 -16.4375 L 8.921875 -8.703125 L 14.15625 -8.703125 Z M 11.546875 -16.4375 "/></g></g></g><g fill="#2e4938" fill-opacity="1"><g transform="translate(237.919223, 183.8001)"><g><path d="M 13.421875 -13.359375 C 14.054688 -13.171875 14.734375 -12.941406 15.453125 -12.671875 C 16.179688 -12.410156 16.859375 -12.050781 17.484375 -11.59375 C 18.109375 -11.132812 18.625 -10.519531 19.03125 -9.75 C 19.445312 -8.988281 19.65625 -8.007812 19.65625 -6.8125 C 19.65625 -5.164062 19.25 -3.796875 18.4375 -2.703125 C 17.632812 -1.617188 16.535156 -0.804688 15.140625 -0.265625 C 13.742188 0.265625 12.144531 0.53125 10.34375 0.53125 C 9.25 0.53125 8.148438 0.367188 7.046875 0.046875 C 5.941406 -0.265625 4.925781 -0.726562 4 -1.34375 C 3.082031 -1.957031 2.34375 -2.734375 1.78125 -3.671875 C 1.21875 -4.609375 0.9375 -5.679688 0.9375 -6.890625 C 0.9375 -7.285156 1.003906 -7.546875 1.140625 -7.671875 C 1.285156 -7.804688 1.554688 -7.875 1.953125 -7.875 L 5.34375 -7.875 C 5.738281 -7.875 6.039062 -7.816406 6.25 -7.703125 C 6.46875 -7.597656 6.585938 -7.328125 6.609375 -6.890625 C 6.628906 -6.660156 6.6875 -6.425781 6.78125 -6.1875 C 6.875 -5.957031 7.039062 -5.710938 7.28125 -5.453125 C 7.625 -5.035156 8.113281 -4.738281 8.75 -4.5625 C 9.394531 -4.382812 10.046875 -4.296875 10.703125 -4.296875 C 11.660156 -4.296875 12.46875 -4.445312 13.125 -4.75 C 13.789062 -5.050781 14.125 -5.691406 14.125 -6.671875 C 14.125 -7.328125 13.820312 -7.804688 13.21875 -8.109375 C 12.613281 -8.410156 11.847656 -8.660156 10.921875 -8.859375 C 10.003906 -9.054688 9.046875 -9.304688 8.046875 -9.609375 C 6.878906 -9.984375 5.773438 -10.425781 4.734375 -10.9375 C 3.703125 -11.457031 2.863281 -12.160156 2.21875 -13.046875 C 1.582031 -13.929688 1.265625 -15.109375 1.265625 -16.578125 C 1.265625 -18.085938 1.664062 -19.347656 2.46875 -20.359375 C 3.269531 -21.378906 4.320312 -22.148438 5.625 -22.671875 C 6.9375 -23.203125 8.3125 -23.488281 9.75 -23.53125 C 10.875 -23.53125 11.984375 -23.398438 13.078125 -23.140625 C 14.171875 -22.890625 15.164062 -22.488281 16.0625 -21.9375 C 16.96875 -21.394531 17.691406 -20.707031 18.234375 -19.875 C 18.785156 -19.050781 19.0625 -18.054688 19.0625 -16.890625 C 19.0625 -16.472656 18.988281 -16.203125 18.84375 -16.078125 C 18.707031 -15.960938 18.441406 -15.90625 18.046875 -15.90625 L 14.609375 -15.90625 C 14.285156 -15.90625 14.070312 -16.003906 13.96875 -16.203125 C 13.863281 -16.398438 13.765625 -16.617188 13.671875 -16.859375 C 13.597656 -17.046875 13.507812 -17.210938 13.40625 -17.359375 C 13.300781 -17.515625 13.144531 -17.695312 12.9375 -17.90625 C 12.613281 -18.226562 12.171875 -18.460938 11.609375 -18.609375 C 11.046875 -18.765625 10.5 -18.84375 9.96875 -18.84375 C 9.59375 -18.84375 9.160156 -18.785156 8.671875 -18.671875 C 8.179688 -18.554688 7.757812 -18.351562 7.40625 -18.0625 C 7.0625 -17.769531 6.890625 -17.351562 6.890625 -16.8125 C 6.890625 -16.28125 7.15625 -15.828125 7.6875 -15.453125 C 8.226562 -15.078125 8.875 -14.753906 9.625 -14.484375 C 10.382812 -14.222656 11.117188 -14.003906 11.828125 -13.828125 C 12.546875 -13.648438 13.078125 -13.492188 13.421875 -13.359375 Z M 13.421875 -13.359375 "/></g></g></g><g fill="#2e4938" fill-opacity="1"><g transform="translate(259.07069, 183.8001)"><g><path d="M 20.359375 -23.015625 C 20.679688 -23.015625 20.925781 -22.941406 21.09375 -22.796875 C 21.269531 -22.660156 21.359375 -22.394531 21.359375 -22 L 21.359375 -1.015625 C 21.359375 -0.617188 21.269531 -0.347656 21.09375 -0.203125 C 20.925781 -0.0664062 20.679688 0 20.359375 0 L 16.890625 0 C 16.585938 0 16.34375 -0.0664062 16.15625 -0.203125 C 15.96875 -0.347656 15.875 -0.617188 15.875 -1.015625 L 15.875 -8.921875 L 8.078125 -8.921875 L 8.078125 -1.015625 C 8.078125 -0.617188 7.988281 -0.347656 7.8125 -0.203125 C 7.632812 -0.0664062 7.382812 0 7.0625 0 L 3.609375 0 C 3.296875 0 3.046875 -0.0664062 2.859375 -0.203125 C 2.679688 -0.347656 2.59375 -0.617188 2.59375 -1.015625 L 2.59375 -22 C 2.59375 -22.394531 2.679688 -22.660156 2.859375 -22.796875 C 3.046875 -22.941406 3.296875 -23.015625 3.609375 -23.015625 L 7.0625 -23.015625 C 7.382812 -23.015625 7.632812 -22.941406 7.8125 -22.796875 C 7.988281 -22.660156 8.078125 -22.394531 8.078125 -22 L 8.078125 -14.09375 L 15.875 -14.09375 L 15.875 -22 C 15.875 -22.394531 15.96875 -22.660156 16.15625 -22.796875 C 16.34375 -22.941406 16.585938 -23.015625 16.890625 -23.015625 Z M 20.359375 -23.015625 "/></g></g></g><g fill="#2e4938" fill-opacity="1"><g transform="translate(171.667932, 213.399167)"><g><path d="M 18.640625 -23.015625 C 19.035156 -23.015625 19.300781 -22.925781 19.4375 -22.75 C 19.582031 -22.570312 19.65625 -22.320312 19.65625 -22 L 19.65625 -19.125 C 19.65625 -18.820312 19.582031 -18.578125 19.4375 -18.390625 C 19.300781 -18.203125 19.035156 -18.109375 18.640625 -18.109375 L 8.078125 -18.109375 L 8.078125 -14.015625 L 17.171875 -14.015625 C 17.566406 -14.015625 17.832031 -13.925781 17.96875 -13.75 C 18.113281 -13.582031 18.1875 -13.335938 18.1875 -13.015625 L 18.1875 -10.25 C 18.1875 -9.945312 18.113281 -9.703125 17.96875 -9.515625 C 17.832031 -9.328125 17.566406 -9.234375 17.171875 -9.234375 L 8.078125 -9.234375 L 8.078125 -1.046875 C 8.078125 -0.609375 8.003906 -0.320312 7.859375 -0.1875 C 7.722656 -0.0625 7.457031 0 7.0625 0 L 3.609375 0 C 3.203125 0 2.929688 -0.09375 2.796875 -0.28125 C 2.660156 -0.46875 2.59375 -0.710938 2.59375 -1.015625 L 2.59375 -22 C 2.59375 -22.320312 2.660156 -22.570312 2.796875 -22.75 C 2.929688 -22.925781 3.203125 -23.015625 3.609375 -23.015625 Z M 18.640625 -23.015625 "/></g></g></g><g fill="#2e4938" fill-opacity="1"><g transform="translate(192.714519, 213.399167)"><g><path d="M 20.671875 -7.375 C 20.671875 -6 20.378906 -4.8125 19.796875 -3.8125 C 19.210938 -2.8125 18.453125 -1.988281 17.515625 -1.34375 C 16.585938 -0.707031 15.570312 -0.238281 14.46875 0.0625 C 13.375 0.375 12.304688 0.53125 11.265625 0.53125 C 10.210938 0.53125 9.144531 0.375 8.0625 0.0625 C 6.976562 -0.238281 5.96875 -0.707031 5.03125 -1.34375 C 4.101562 -1.988281 3.351562 -2.8125 2.78125 -3.8125 C 2.207031 -4.8125 1.921875 -6 1.921875 -7.375 L 1.921875 -15.625 C 1.921875 -17 2.207031 -18.1875 2.78125 -19.1875 C 3.351562 -20.195312 4.101562 -21.019531 5.03125 -21.65625 C 5.96875 -22.300781 6.976562 -22.773438 8.0625 -23.078125 C 9.144531 -23.378906 10.210938 -23.53125 11.265625 -23.53125 C 12.304688 -23.53125 13.375 -23.378906 14.46875 -23.078125 C 15.570312 -22.773438 16.585938 -22.300781 17.515625 -21.65625 C 18.453125 -21.019531 19.210938 -20.195312 19.796875 -19.1875 C 20.378906 -18.1875 20.671875 -17 20.671875 -15.625 Z M 15.171875 -15.140625 C 15.171875 -16.253906 14.8125 -17.117188 14.09375 -17.734375 C 13.375 -18.359375 12.429688 -18.671875 11.265625 -18.671875 C 10.117188 -18.671875 9.179688 -18.359375 8.453125 -17.734375 C 7.734375 -17.117188 7.375 -16.253906 7.375 -15.140625 L 7.375 -7.875 C 7.375 -6.75 7.734375 -5.878906 8.453125 -5.265625 C 9.179688 -4.648438 10.117188 -4.34375 11.265625 -4.34375 C 12.429688 -4.34375 13.375 -4.648438 14.09375 -5.265625 C 14.8125 -5.878906 15.171875 -6.75 15.171875 -7.875 Z M 15.171875 -15.140625 "/></g></g></g><g fill="#2e4938" fill-opacity="1"><g transform="translate(215.264424, 213.399167)"><g><path d="M 21.4375 -1.125 C 21.601562 -0.882812 21.640625 -0.632812 21.546875 -0.375 C 21.453125 -0.125 21.238281 0 20.90625 0 L 16.78125 0 C 16.363281 0 16.03125 -0.078125 15.78125 -0.234375 C 15.539062 -0.398438 15.289062 -0.671875 15.03125 -1.046875 L 11.265625 -6.671875 C 11.097656 -6.890625 10.988281 -7.117188 10.9375 -7.359375 C 10.894531 -7.609375 10.875 -7.976562 10.875 -8.46875 L 10.875 -11.265625 C 10.875 -11.585938 10.941406 -11.835938 11.078125 -12.015625 C 11.222656 -12.191406 11.492188 -12.28125 11.890625 -12.28125 L 12.59375 -12.28125 C 13.445312 -12.28125 14.210938 -12.546875 14.890625 -13.078125 C 15.566406 -13.609375 15.90625 -14.285156 15.90625 -15.109375 C 15.90625 -16.015625 15.597656 -16.734375 14.984375 -17.265625 C 14.367188 -17.804688 13.601562 -18.078125 12.6875 -18.078125 L 8.046875 -18.078125 L 8.046875 -1.015625 C 8.046875 -0.617188 7.957031 -0.347656 7.78125 -0.203125 C 7.601562 -0.0664062 7.351562 0 7.03125 0 L 3.5625 0 C 3.257812 0 3.019531 -0.0664062 2.84375 -0.203125 C 2.675781 -0.347656 2.59375 -0.617188 2.59375 -1.015625 L 2.59375 -21.953125 C 2.59375 -22.285156 2.65625 -22.535156 2.78125 -22.703125 C 2.90625 -22.878906 3.164062 -22.96875 3.5625 -22.96875 L 12.375 -22.96875 C 13.65625 -22.96875 14.710938 -22.882812 15.546875 -22.71875 C 16.390625 -22.5625 17.109375 -22.3125 17.703125 -21.96875 C 18.304688 -21.632812 18.851562 -21.222656 19.34375 -20.734375 C 19.988281 -20.109375 20.484375 -19.316406 20.828125 -18.359375 C 21.179688 -17.398438 21.359375 -16.363281 21.359375 -15.25 C 21.359375 -14.03125 21.101562 -12.941406 20.59375 -11.984375 C 20.082031 -11.035156 19.453125 -10.242188 18.703125 -9.609375 C 17.960938 -8.984375 17.226562 -8.539062 16.5 -8.28125 Z M 21.4375 -1.125 "/></g></g></g><g fill="#2e4938" fill-opacity="1"><g transform="translate(238.548521, 213.399167)"><g><path d="M 20.3125 -6.8125 C 20.3125 -5.695312 20.039062 -4.679688 19.5 -3.765625 C 18.96875 -2.859375 18.265625 -2.082031 17.390625 -1.4375 C 16.515625 -0.800781 15.539062 -0.316406 14.46875 0.015625 C 13.40625 0.359375 12.320312 0.53125 11.21875 0.53125 C 10.175781 0.53125 9.101562 0.367188 8 0.046875 C 6.90625 -0.265625 5.890625 -0.738281 4.953125 -1.375 C 4.023438 -2.019531 3.273438 -2.835938 2.703125 -3.828125 C 2.140625 -4.816406 1.859375 -6 1.859375 -7.375 L 1.859375 -15.625 C 1.859375 -17 2.140625 -18.179688 2.703125 -19.171875 C 3.273438 -20.171875 4.023438 -20.988281 4.953125 -21.625 C 5.890625 -22.269531 6.90625 -22.75 8 -23.0625 C 9.101562 -23.375 10.175781 -23.53125 11.21875 -23.53125 C 12.664062 -23.53125 14.050781 -23.285156 15.375 -22.796875 C 16.707031 -22.304688 17.828125 -21.570312 18.734375 -20.59375 C 19.648438 -19.613281 20.175781 -18.378906 20.3125 -16.890625 C 20.3125 -16.472656 20.226562 -16.195312 20.0625 -16.0625 C 19.90625 -15.9375 19.628906 -15.875 19.234375 -15.875 L 15.875 -15.875 C 15.5 -15.875 15.265625 -16 15.171875 -16.25 C 15.078125 -16.507812 14.960938 -16.742188 14.828125 -16.953125 C 14.453125 -17.535156 13.992188 -17.960938 13.453125 -18.234375 C 12.921875 -18.503906 12.175781 -18.640625 11.21875 -18.640625 C 10.082031 -18.640625 9.148438 -18.328125 8.421875 -17.703125 C 7.703125 -17.085938 7.34375 -16.234375 7.34375 -15.140625 L 7.34375 -7.875 C 7.34375 -6.75 7.703125 -5.882812 8.421875 -5.28125 C 9.148438 -4.675781 10.082031 -4.375 11.21875 -4.375 C 12.175781 -4.375 12.992188 -4.554688 13.671875 -4.921875 C 14.347656 -5.296875 14.753906 -5.90625 14.890625 -6.75 C 14.941406 -7.101562 15.019531 -7.398438 15.125 -7.640625 C 15.226562 -7.890625 15.46875 -8.015625 15.84375 -8.015625 L 19.265625 -8.015625 C 19.960938 -8.015625 20.3125 -7.613281 20.3125 -6.8125 Z M 20.3125 -6.8125 "/></g></g></g><g fill="#2e4938" fill-opacity="1"><g transform="translate(260.643942, 213.399167)"><g><path d="M 22.375 -0.984375 C 22.46875 -0.773438 22.488281 -0.554688 22.4375 -0.328125 C 22.394531 -0.109375 22.175781 0 21.78125 0 L 18.109375 0 C 17.734375 0 17.453125 -0.0664062 17.265625 -0.203125 C 17.085938 -0.347656 16.925781 -0.628906 16.78125 -1.046875 L 15.8125 -3.8125 L 7.234375 -3.8125 L 6.265625 -1.046875 C 6.117188 -0.628906 5.957031 -0.347656 5.78125 -0.203125 C 5.613281 -0.0664062 5.332031 0 4.9375 0 L 1.265625 0 C 0.890625 0 0.671875 -0.109375 0.609375 -0.328125 C 0.554688 -0.554688 0.578125 -0.773438 0.671875 -0.984375 L 8.421875 -21.921875 C 8.566406 -22.296875 8.75 -22.570312 8.96875 -22.75 C 9.1875 -22.925781 9.484375 -23.015625 9.859375 -23.015625 L 13.21875 -23.015625 C 13.613281 -23.015625 13.910156 -22.925781 14.109375 -22.75 C 14.304688 -22.570312 14.488281 -22.296875 14.65625 -21.921875 Z M 11.546875 -16.4375 L 8.921875 -8.703125 L 14.15625 -8.703125 Z M 11.546875 -16.4375 "/></g></g></g><g fill="#2e4938" fill-opacity="1"><g transform="translate(283.543463, 213.399167)"><g><path d="M 13.421875 -13.359375 C 14.054688 -13.171875 14.734375 -12.941406 15.453125 -12.671875 C 16.179688 -12.410156 16.859375 -12.050781 17.484375 -11.59375 C 18.109375 -11.132812 18.625 -10.519531 19.03125 -9.75 C 19.445312 -8.988281 19.65625 -8.007812 19.65625 -6.8125 C 19.65625 -5.164062 19.25 -3.796875 18.4375 -2.703125 C 17.632812 -1.617188 16.535156 -0.804688 15.140625 -0.265625 C 13.742188 0.265625 12.144531 0.53125 10.34375 0.53125 C 9.25 0.53125 8.148438 0.367188 7.046875 0.046875 C 5.941406 -0.265625 4.925781 -0.726562 4 -1.34375 C 3.082031 -1.957031 2.34375 -2.734375 1.78125 -3.671875 C 1.21875 -4.609375 0.9375 -5.679688 0.9375 -6.890625 C 0.9375 -7.285156 1.003906 -7.546875 1.140625 -7.671875 C 1.285156 -7.804688 1.554688 -7.875 1.953125 -7.875 L 5.34375 -7.875 C 5.738281 -7.875 6.039062 -7.816406 6.25 -7.703125 C 6.46875 -7.597656 6.585938 -7.328125 6.609375 -6.890625 C 6.628906 -6.660156 6.6875 -6.425781 6.78125 -6.1875 C 6.875 -5.957031 7.039062 -5.710938 7.28125 -5.453125 C 7.625 -5.035156 8.113281 -4.738281 8.75 -4.5625 C 9.394531 -4.382812 10.046875 -4.296875 10.703125 -4.296875 C 11.660156 -4.296875 12.46875 -4.445312 13.125 -4.75 C 13.789062 -5.050781 14.125 -5.691406 14.125 -6.671875 C 14.125 -7.328125 13.820312 -7.804688 13.21875 -8.109375 C 12.613281 -8.410156 11.847656 -8.660156 10.921875 -8.859375 C 10.003906 -9.054688 9.046875 -9.304688 8.046875 -9.609375 C 6.878906 -9.984375 5.773438 -10.425781 4.734375 -10.9375 C 3.703125 -11.457031 2.863281 -12.160156 2.21875 -13.046875 C 1.582031 -13.929688 1.265625 -15.109375 1.265625 -16.578125 C 1.265625 -18.085938 1.664062 -19.347656 2.46875 -20.359375 C 3.269531 -21.378906 4.320312 -22.148438 5.625 -22.671875 C 6.9375 -23.203125 8.3125 -23.488281 9.75 -23.53125 C 10.875 -23.53125 11.984375 -23.398438 13.078125 -23.140625 C 14.171875 -22.890625 15.164062 -22.488281 16.0625 -21.9375 C 16.96875 -21.394531 17.691406 -20.707031 18.234375 -19.875 C 18.785156 -19.050781 19.0625 -18.054688 19.0625 -16.890625 C 19.0625 -16.472656 18.988281 -16.203125 18.84375 -16.078125 C 18.707031 -15.960938 18.441406 -15.90625 18.046875 -15.90625 L 14.609375 -15.90625 C 14.285156 -15.90625 14.070312 -16.003906 13.96875 -16.203125 C 13.863281 -16.398438 13.765625 -16.617188 13.671875 -16.859375 C 13.597656 -17.046875 13.507812 -17.210938 13.40625 -17.359375 C 13.300781 -17.515625 13.144531 -17.695312 12.9375 -17.90625 C 12.613281 -18.226562 12.171875 -18.460938 11.609375 -18.609375 C 11.046875 -18.765625 10.5 -18.84375 9.96875 -18.84375 C 9.59375 -18.84375 9.160156 -18.785156 8.671875 -18.671875 C 8.179688 -18.554688 7.757812 -18.351562 7.40625 -18.0625 C 7.0625 -17.769531 6.890625 -17.351562 6.890625 -16.8125 C 6.890625 -16.28125 7.15625 -15.828125 7.6875 -15.453125 C 8.226562 -15.078125 8.875 -14.753906 9.625 -14.484375 C 10.382812 -14.222656 11.117188 -14.003906 11.828125 -13.828125 C 12.546875 -13.648438 13.078125 -13.492188 13.421875 -13.359375 Z M 13.421875 -13.359375 "/></g></g></g><g fill="#2e4938" fill-opacity="1"><g transform="translate(304.69493, 213.399167)"><g><path d="M 20.359375 -23.015625 C 20.679688 -23.015625 20.925781 -22.941406 21.09375 -22.796875 C 21.269531 -22.660156 21.359375 -22.394531 21.359375 -22 L 21.359375 -1.015625 C 21.359375 -0.617188 21.269531 -0.347656 21.09375 -0.203125 C 20.925781 -0.0664062 20.679688 0 20.359375 0 L 16.890625 0 C 16.585938 0 16.34375 -0.0664062 16.15625 -0.203125 C 15.96875 -0.347656 15.875 -0.617188 15.875 -1.015625 L 15.875 -8.921875 L 8.078125 -8.921875 L 8.078125 -1.015625 C 8.078125 -0.617188 7.988281 -0.347656 7.8125 -0.203125 C 7.632812 -0.0664062 7.382812 0 7.0625 0 L 3.609375 0 C 3.296875 0 3.046875 -0.0664062 2.859375 -0.203125 C 2.679688 -0.347656 2.59375 -0.617188 2.59375 -1.015625 L 2.59375 -22 C 2.59375 -22.394531 2.679688 -22.660156 2.859375 -22.796875 C 3.046875 -22.941406 3.296875 -23.015625 3.609375 -23.015625 L 7.0625 -23.015625 C 7.382812 -23.015625 7.632812 -22.941406 7.8125 -22.796875 C 7.988281 -22.660156 8.078125 -22.394531 8.078125 -22 L 8.078125 -14.09375 L 15.875 -14.09375 L 15.875 -22 C 15.875 -22.394531 15.96875 -22.660156 16.15625 -22.796875 C 16.34375 -22.941406 16.585938 -23.015625 16.890625 -23.015625 Z M 20.359375 -23.015625 "/></g></g></g></svg>